<svg xmlns="http://www.w3.org/2000/svg" xmlns:xlink="http://www.w3.org/1999/xlink" width="146.60001182556152" height="62.72500228881836" style="width:146.60001182556152px;height:62.72500228881836px;font-family:Asana-Math, Asana;background:#FFF;"><g><g><g><g transform="matrix(1,0,0,1,9.79998779296875,25.68001220703125)"><path transform="matrix(0.024480000000000002,0,0,-0.024480000000000002,0,0)" d="M108 471C108 386 146 339 230 319L325 296C379 283 406 248 406 191C406 96 335 30 232 30C178 30 140 42 96 73L96 172L66 172C60 117 53 72 42 20C91 -5 144 -18 197 -18C352 -18 485 99 485 234C485 313 442 355 341 377L276 391C210 405 180 442 180 508C180 595 247 658 339 658C388 658 421 645 451 613L451 537L481 537C485 591 492 629 506 672C461 696 421 706 374 706C250 706 108 614 108 471ZM572 152C572 46 617 -11 700 -11C755 -11 815 15 860 57C922 116 966 230 966 331C966 425 916 482 833 482C729 482 572 382 572 152ZM796 444C857 444 890 399 890 315C890 219 859 113 815 60C797 39 771 27 740 27C682 27 648 72 648 151C648 264 687 387 736 427C749 438 772 444 796 444ZM1249 722L1237 733C1185 707 1149 698 1077 691L1073 670L1121 670C1145 670 1155 663 1155 648C1155 645 1155 640 1152 622C1141 567 1068 182 1053 132C1040 82 1034 52 1034 31C1034 6 1045 -9 1064 -9C1090 -9 1126 12 1224 85L1214 103L1188 86C1159 67 1137 56 1127 56C1120 56 1114 66 1114 76C1114 82 1115 89 1118 104ZM1441 420C1462 420 1478 421 1504 424C1393 304 1351 221 1351 121C1351 44 1397 -11 1461 -11C1599 -11 1752 236 1752 384C1752 441 1726 482 1690 482C1677 482 1665 478 1657 470L1607 423L1618 404C1627 410 1636 413 1645 413C1672 413 1688 390 1688 350C1688 202 1591 39 1503 39C1454 39 1423 81 1423 146C1423 251 1462 342 1560 464L1550 482C1530 473 1517 470 1489 470C1461 470 1419 472 1390 475L1378 476C1372 477 1367 477 1366 477C1354 477 1345 475 1334 470C1320 443 1309 407 1296 352L1318 352L1335 394C1342 411 1362 422 1386 422C1419 422 1403 420 1441 420ZM2102 111L2078 94C2025 56 1977 36 1941 36C1894 36 1865 73 1865 133C1865 158 1868 185 1873 214C1890 218 1999 248 2024 259C2109 296 2148 342 2148 404C2148 451 2114 482 2064 482C1996 496 1886 423 1849 349C1819 299 1789 180 1789 113C1789 35 1833 -11 1905 -11C1962 -11 2018 17 2110 92ZM1887 274C1904 343 1924 386 1953 412C1971 428 2002 440 2026 440C2055 440 2074 420 2074 388C2074 344 2039 297 1987 272C1959 258 1923 247 1878 237ZM2756 437L2740 437L2761 549C2777 635 2805 673 2851 673C2881 673 2908 658 2923 634L2933 638C2938 654 2948 685 2956 705L2961 720C2945 727 2914 733 2891 733C2880 733 2864 730 2856 726C2832 715 2750 654 2727 630C2705 608 2693 578 2682 521L2667 442C2626 422 2606 414 2581 405L2576 383L2657 383L2648 327C2618 132 2581 -54 2559 -123C2541 -182 2511 -213 2475 -213C2452 -213 2441 -206 2423 -184L2409 -188C2405 -211 2391 -259 2386 -268C2395 -273 2410 -276 2421 -276C2462 -276 2516 -245 2555 -198C2626 -114 2646 -18 2730 383L2834 383C2838 402 2845 425 2851 439L2847 446C2818 439 2819 437 2756 437ZM2978 152C2978 46 3023 -11 3106 -11C3161 -11 3221 15 3266 57C3328 116 3372 230 3372 331C3372 425 3322 482 3239 482C3135 482 2978 382 2978 152ZM3202 444C3263 444 3296 399 3296 315C3296 219 3265 113 3221 60C3203 39 3177 27 3146 27C3088 27 3054 72 3054 151C3054 264 3093 387 3142 427C3155 438 3178 444 3202 444ZM3772 365C3775 403 3780 435 3788 476C3777 481 3773 482 3768 482C3737 482 3706 458 3670 407C3631 351 3592 291 3576 256L3608 408C3612 425 3614 438 3614 450C3614 470 3606 482 3591 482C3570 482 3532 461 3458 408L3430 388L3437 368L3469 389C3497 407 3508 412 3517 412C3527 412 3534 403 3534 390C3534 332 3491 126 3451 -2L3461 -9C3476 -4 3492 -1 3515 4L3528 6L3554 126C3572 209 3595 262 3639 319C3673 363 3700 384 3722 384C3737 384 3747 379 3758 365ZM4050 1C4065 -7 4081 -11 4093 -11C4126 -11 4165 18 4196 65L4272 182L4283 113C4296 28 4319 -11 4355 -11C4377 -11 4409 6 4441 35L4490 79L4481 98C4445 68 4420 53 4404 53C4389 53 4376 63 4366 83C4357 102 4346 139 4341 168L4323 269L4358 318C4405 383 4432 406 4463 406C4479 406 4491 398 4496 383L4510 387L4525 472C4513 479 4504 482 4495 482C4455 482 4415 446 4353 354L4316 299L4310 347C4298 446 4271 482 4212 482C4186 482 4164 474 4155 461L4097 378L4114 368C4144 402 4164 416 4183 416C4216 416 4238 375 4255 277L4266 215L4226 153C4183 86 4149 54 4121 54C4106 54 4095 58 4093 63L4082 91L4062 88C4062 53 4054 27 4050 1Z" stroke="rgb(0,0,0)" stroke-opacity="1" stroke-width="8" fill="rgb(0,0,0)" fill-opacity="1"></path></g></g><g><g transform="matrix(1,0,0,1,125.79998779296875,25.68001220703125)"><path transform="matrix(0.024480000000000002,0,0,-0.024480000000000002,0,0)" d="M123 111C93 111 66 83 66 53C66 23 93 -5 122 -5C154 -5 182 22 182 53C182 83 154 111 123 111ZM123 456C93 456 66 428 66 398C66 368 93 340 122 340C154 340 182 367 182 397C182 428 154 456 123 456Z" stroke="rgb(0,0,0)" stroke-opacity="1" stroke-width="8" fill="rgb(0,0,0)" fill-opacity="1"></path></g></g></g><g><g><g transform="matrix(1,0,0,1,2,55.042500000000004)"><path transform="matrix(0.024480000000000002,0,0,-0.024480000000000002,0,0)" d="M462 224C462 345 355 366 308 374C388 436 418 482 418 541C418 630 344 689 233 689C165 689 120 670 72 622L43 498L74 498L92 554C103 588 166 622 218 622C283 622 336 569 336 506C336 431 277 368 206 368C198 368 187 369 174 370L159 371L147 318L154 312C192 329 211 334 238 334C321 334 369 281 369 190C369 88 308 21 215 21C169 21 128 36 98 64C74 86 61 109 42 163L15 153C36 92 44 56 50 6C103 -12 147 -20 184 -20C307 -20 462 87 462 224ZM917 -3L917 27L865 30C810 33 800 44 800 96L800 700L559 598L566 548L716 614L716 96C716 44 705 33 651 30L595 27L595 -3C749 0 749 0 760 0C791 0 901 -3 917 -3Z" stroke="rgb(0,0,0)" stroke-opacity="1" stroke-width="8" fill="rgb(0,0,0)" fill-opacity="1"></path></g></g><g><g transform="matrix(1,0,0,1,37.4124755859375,55.042500000000004)"><path transform="matrix(0.024480000000000002,0,0,-0.024480000000000002,0,0)" d="M604 241L604 300L364 300L364 538L305 538L305 300L65 300L65 241L305 241L305 0L364 0L364 241Z" stroke="rgb(0,0,0)" stroke-opacity="1" stroke-width="8" fill="rgb(0,0,0)" fill-opacity="1"></path></g></g><g><g transform="matrix(1,0,0,1,58.64996337890625,55.042500000000004)"><path transform="matrix(0.024480000000000002,0,0,-0.024480000000000002,0,0)" d="M258 1C273 -7 289 -11 301 -11C334 -11 373 18 404 65L480 182L491 113C504 28 527 -11 563 -11C585 -11 617 6 649 35L698 79L689 98C653 68 628 53 612 53C597 53 584 63 574 83C565 102 554 139 549 168L531 269L566 318C613 383 640 406 671 406C687 406 699 398 704 383L718 387L733 472C721 479 712 482 703 482C663 482 623 446 561 354L524 299L518 347C506 446 479 482 420 482C394 482 372 474 363 461L305 378L322 368C352 402 372 416 391 416C424 416 446 375 463 277L474 215L434 153C391 86 357 54 329 54C314 54 303 58 301 63L290 91L270 88C270 53 262 27 258 1Z" stroke="rgb(0,0,0)" stroke-opacity="1" stroke-width="8" fill="rgb(0,0,0)" fill-opacity="1"></path></g></g><g><g transform="matrix(1,0,0,1,90.38751220703125,55.042500000000004)"><path transform="matrix(0.024480000000000002,0,0,-0.024480000000000002,0,0)" d="M604 347L604 406L65 406L65 347ZM604 134L604 193L65 193L65 134Z" stroke="rgb(0,0,0)" stroke-opacity="1" stroke-width="8" fill="rgb(0,0,0)" fill-opacity="1"></path></g></g><g><g transform="matrix(1,0,0,1,114.07501220703125,55.042500000000004)"><path transform="matrix(0.024480000000000002,0,0,-0.024480000000000002,0,0)" d="M708 253C708 366 627 446 513 446C465 446 429 443 376 396L376 605L681 604L681 689L324 690L324 322L344 316C391 363 418 377 467 377C563 377 623 309 623 201C623 90 559 25 450 25C396 25 346 43 332 69L286 151L262 137C285 80 297 48 311 4C339 -11 379 -20 422 -20C550 -20 708 89 708 253ZM1011 689C856 689 777 566 777 324C777 207 798 106 833 57C868 8 924 -20 986 -20C1137 -20 1213 110 1213 366C1213 585 1148 689 1011 689ZM993 654C1090 654 1129 556 1129 316C1129 103 1091 15 999 15C902 15 861 116 861 360C861 571 898 654 993 654Z" stroke="rgb(0,0,0)" stroke-opacity="1" stroke-width="8" fill="rgb(0,0,0)" fill-opacity="1"></path></g></g></g></g></svg>