<svg xmlns="http://www.w3.org/2000/svg" xmlns:xlink="http://www.w3.org/1999/xlink" width="108.42495107650757" height="33.36250114440918" style="width:108.42495107650757px;height:33.36250114440918px;font-family:Asana-Math, Asana;background:#FFF;"><g><g><g><g transform="matrix(1,0,0,1,2,25.68001220703125)"><path transform="matrix(0.024480000000000002,0,0,-0.024480000000000002,0,0)" d="M459 253C459 366 378 446 264 446C216 446 180 443 127 396L127 605L432 604L432 689L75 690L75 322L95 316C142 363 169 377 218 377C314 377 374 309 374 201C374 90 310 25 201 25C147 25 97 43 83 69L37 151L13 137C36 80 48 48 62 4C90 -11 130 -20 173 -20C301 -20 459 89 459 253Z" stroke="rgb(0,0,0)" stroke-opacity="1" stroke-width="8" fill="rgb(0,0,0)" fill-opacity="1"></path></g></g><g><g transform="matrix(1,0,0,1,25.199951171875,25.68001220703125)"><path transform="matrix(0.024480000000000002,0,0,-0.024480000000000002,0,0)" d="M555 243L555 299L51 299L51 243Z" stroke="rgb(0,0,0)" stroke-opacity="1" stroke-width="8" fill="rgb(0,0,0)" fill-opacity="1"></path></g></g><g><g transform="matrix(1,0,0,1,44.89996337890625,25.68001220703125)"><path transform="matrix(0.024480000000000002,0,0,-0.024480000000000002,0,0)" d="M667 -3L667 27L615 30C560 33 550 44 550 96L550 700L309 598L316 548L466 614L466 96C466 44 455 33 401 30L345 27L345 -3C499 0 499 0 510 0C541 0 651 -3 667 -3Z" stroke="rgb(0,0,0)" stroke-opacity="1" stroke-width="8" fill="rgb(0,0,0)" fill-opacity="1"></path></g></g><g><g transform="matrix(1,0,0,1,76.637451171875,25.68001220703125)"><path transform="matrix(0.024480000000000002,0,0,-0.024480000000000002,0,0)" d="M604 347L604 406L65 406L65 347ZM604 134L604 193L65 193L65 134Z" stroke="rgb(0,0,0)" stroke-opacity="1" stroke-width="8" fill="rgb(0,0,0)" fill-opacity="1"></path></g></g><g><g transform="matrix(1,0,0,1,100.324951171875,25.68001220703125)"><path transform="matrix(0.024480000000000002,0,0,-0.024480000000000002,0,0)" d="" stroke="rgb(0,0,0)" stroke-opacity="1" stroke-width="8" fill="rgb(0,0,0)" fill-opacity="1"></path></g></g></g></g></svg>