<svg xmlns="http://www.w3.org/2000/svg" xmlns:xlink="http://www.w3.org/1999/xlink" width="278.800048828125" height="62.72500228881836" style="width:278.800048828125px;height:62.72500228881836px;font-family:Asana-Math, Asana;background:#FFF;"><g><g><g><g transform="matrix(1,0,0,1,2,25.679981689453125)"><path transform="matrix(0.024480000000000002,0,0,-0.024480000000000002,0,0)" d="M303 692L264 691C226 689 202 689 182 689C170 689 148 690 110 691L71 692L71 664L89 662C130 656 138 645 142 588L174 158C179 92 181 44 182 -8L232 -8C246 27 264 66 282 102L506 546L618 154C633 102 644 53 657 -8L708 -8L715 18C725 58 733 85 746 124L917 631C923 648 938 660 960 662L980 664L980 692L948 691C919 690 897 689 883 689C870 689 848 690 818 691L785 692L780 664L819 662C848 661 860 653 860 639C860 626 857 608 851 590L704 128L546 700L528 700C516 673 494 624 476 588L252 132L221 616C221 646 234 660 266 662L303 664ZM1311 365C1314 403 1319 435 1327 476C1316 481 1312 482 1307 482C1276 482 1245 458 1209 407C1170 351 1131 291 1115 256L1147 408C1151 425 1153 438 1153 450C1153 470 1145 482 1130 482C1109 482 1071 461 997 408L969 388L976 368L1008 389C1036 407 1047 412 1056 412C1066 412 1073 403 1073 390C1073 332 1030 126 990 -2L1000 -9C1015 -4 1031 -1 1054 4L1067 6L1093 126C1111 209 1134 262 1178 319C1212 363 1239 384 1261 384C1276 384 1286 379 1297 365ZM1365 388L1372 368L1404 389C1441 412 1444 414 1451 414C1461 414 1469 404 1469 391C1469 384 1465 361 1461 347L1395 107C1387 76 1382 49 1382 30C1382 6 1393 -9 1412 -9C1438 -9 1474 12 1572 85L1562 103L1536 86C1507 67 1484 56 1475 56C1468 56 1462 66 1462 76C1462 86 1464 95 1469 116L1546 420C1550 437 1552 448 1552 456C1552 473 1543 482 1527 482C1505 482 1468 461 1393 408ZM1559 712C1530 712 1501 679 1501 645C1501 620 1516 604 1540 604C1571 604 1595 633 1595 671C1595 695 1580 712 1559 712ZM1733 390L1677 107C1676 99 1664 61 1664 31C1664 6 1675 -9 1694 -9C1729 -9 1764 11 1842 74L1873 99L1863 117L1818 86C1789 66 1769 56 1758 56C1749 56 1744 64 1744 76C1744 102 1758 183 1787 328L1800 390L1907 390L1918 440C1880 436 1846 434 1808 434C1824 528 1835 577 1853 631L1842 646C1822 634 1795 622 1764 610L1739 440C1695 419 1669 408 1651 403L1649 390ZM2268 111L2244 94C2191 56 2143 36 2107 36C2060 36 2031 73 2031 133C2031 158 2034 185 2039 214C2056 218 2165 248 2190 259C2275 296 2314 342 2314 404C2314 451 2280 482 2230 482C2162 496 2052 423 2015 349C1985 299 1955 180 1955 113C1955 35 1999 -11 2071 -11C2128 -11 2184 17 2276 92ZM2053 274C2070 343 2090 386 2119 412C2137 428 2168 440 2192 440C2221 440 2240 420 2240 388C2240 344 2205 297 2153 272C2125 258 2089 247 2044 237ZM2702 390L2646 107C2645 99 2633 61 2633 31C2633 6 2644 -9 2663 -9C2698 -9 2733 11 2811 74L2842 99L2832 117L2787 86C2758 66 2738 56 2727 56C2718 56 2713 64 2713 76C2713 102 2727 183 2756 328L2769 390L2876 390L2887 440C2849 436 2815 434 2777 434C2793 528 2804 577 2822 631L2811 646C2791 634 2764 622 2733 610L2708 440C2664 419 2638 408 2620 403L2618 390ZM3145 722L3133 733C3088 711 3047 697 2973 691L2969 670L3017 670C3035 670 3051 667 3051 647C3051 641 3051 632 3049 622L3007 388C2987 272 2945 80 2919 2L2926 -9L2995 7C3003 64 3017 164 3057 236C3102 317 3205 414 3247 414C3258 414 3269 407 3269 393C3269 375 3264 342 3254 303L3203 107C3197 85 3190 55 3190 31C3190 6 3200 -9 3221 -9C3253 -9 3321 41 3380 85L3370 103L3344 86C3321 71 3295 56 3283 56C3276 56 3270 65 3270 76C3270 88 3273 101 3277 116L3341 372C3347 398 3352 423 3352 447C3352 464 3346 482 3320 482C3285 482 3208 437 3140 374C3107 343 3081 308 3053 273L3049 275ZM3736 111L3712 94C3659 56 3611 36 3575 36C3528 36 3499 73 3499 133C3499 158 3502 185 3507 214C3524 218 3633 248 3658 259C3743 296 3782 342 3782 404C3782 451 3748 482 3698 482C3630 496 3520 423 3483 349C3453 299 3423 180 3423 113C3423 35 3467 -11 3539 -11C3596 -11 3652 17 3744 92ZM3521 274C3538 343 3558 386 3587 412C3605 428 3636 440 3660 440C3689 440 3708 420 3708 388C3708 344 3673 297 3621 272C3593 258 3557 247 3512 237ZM4775 103L4749 86C4720 67 4698 56 4688 56C4681 56 4675 65 4675 76C4675 86 4677 95 4682 116L4757 413C4761 430 4764 446 4764 454C4764 471 4754 482 4738 482C4709 482 4671 464 4610 421C4547 376 4512 341 4463 272L4493 409C4497 429 4500 444 4500 451C4500 470 4490 482 4474 482C4444 482 4398 460 4343 418C4299 384 4279 363 4214 275L4247 408C4251 424 4253 439 4253 451C4253 470 4244 482 4230 482C4209 482 4171 461 4097 408L4069 388L4076 368C4113 391 4148 414 4155 414C4166 414 4173 404 4173 389C4173 338 4132 145 4091 2L4094 -9L4162 6L4184 108C4208 219 4235 278 4290 338C4332 384 4377 414 4405 414C4412 414 4416 406 4416 393C4416 358 4394 244 4353 69L4337 2L4342 -9L4411 6L4432 113C4448 194 4482 269 4526 318C4581 379 4631 414 4663 414C4671 414 4676 405 4676 389C4676 365 4673 351 4651 264C4611 105 4595 84 4595 31C4595 6 4606 -9 4625 -9C4651 -9 4687 12 4785 85ZM4856 388L4863 368L4895 389C4932 412 4935 414 4942 414C4952 414 4960 404 4960 391C4960 384 4956 361 4952 347L4886 107C4878 76 4873 49 4873 30C4873 6 4884 -9 4903 -9C4929 -9 4965 12 5063 85L5053 103L5027 86C4998 67 4975 56 4966 56C4959 56 4953 66 4953 76C4953 86 4955 95 4960 116L5037 420C5041 437 5043 448 5043 456C5043 473 5034 482 5018 482C4996 482 4959 461 4884 408ZM5050 712C5021 712 4992 679 4992 645C4992 620 5007 604 5031 604C5062 604 5086 633 5086 671C5086 695 5071 712 5050 712ZM5130 148C5125 97 5119 62 5108 16C5146 -2 5180 -11 5215 -11C5264 -11 5310 7 5361 47C5412 87 5433 124 5433 174C5433 228 5401 257 5327 271L5284 279C5224 290 5205 307 5205 348C5205 401 5250 442 5307 442C5348 442 5386 424 5402 397L5402 342L5425 342C5429 377 5433 404 5444 455C5405 474 5377 482 5344 482C5292 482 5231 452 5183 404C5157 377 5146 352 5146 316C5146 260 5177 228 5243 215L5306 203C5350 195 5366 177 5366 138C5366 73 5320 29 5249 29C5214 29 5183 40 5155 64L5155 148ZM5518 148C5513 97 5507 62 5496 16C5534 -2 5568 -11 5603 -11C5652 -11 5698 7 5749 47C5800 87 5821 124 5821 174C5821 228 5789 257 5715 271L5672 279C5612 290 5593 307 5593 348C5593 401 5638 442 5695 442C5736 442 5774 424 5790 397L5790 342L5813 342C5817 377 5821 404 5832 455C5793 474 5765 482 5732 482C5680 482 5619 452 5571 404C5545 377 5534 352 5534 316C5534 260 5565 228 5631 215L5694 203C5738 195 5754 177 5754 138C5754 73 5708 29 5637 29C5602 29 5571 40 5543 64L5543 148ZM5909 388L5916 368L5948 389C5985 412 5988 414 5995 414C6005 414 6013 404 6013 391C6013 384 6009 361 6005 347L5939 107C5931 76 5926 49 5926 30C5926 6 5937 -9 5956 -9C5982 -9 6018 12 6116 85L6106 103L6080 86C6051 67 6028 56 6019 56C6012 56 6006 66 6006 76C6006 86 6008 95 6013 116L6090 420C6094 437 6096 448 6096 456C6096 473 6087 482 6071 482C6049 482 6012 461 5937 408ZM6103 712C6074 712 6045 679 6045 645C6045 620 6060 604 6084 604C6115 604 6139 633 6139 671C6139 695 6124 712 6103 712ZM6176 388L6183 368L6215 389C6252 412 6255 414 6262 414C6273 414 6280 404 6280 389C6280 338 6239 145 6198 2L6205 -9C6230 -2 6253 4 6275 8C6294 134 6315 199 6361 268C6415 352 6490 414 6535 414C6546 414 6552 405 6552 390C6552 372 6549 351 6541 319L6489 107C6480 70 6476 47 6476 31C6476 6 6487 -9 6506 -9C6532 -9 6568 12 6666 85L6656 103L6630 86C6601 67 6579 56 6569 56C6562 56 6556 65 6556 76C6556 81 6557 92 6558 96L6624 372C6631 401 6635 429 6635 446C6635 469 6624 482 6604 482C6562 482 6493 444 6434 389C6396 354 6368 320 6316 247L6354 408C6358 426 6360 438 6360 449C6360 470 6352 482 6337 482C6316 482 6277 460 6204 408ZM6982 482C6915 482 6762 419 6762 259C6762 182 6807 136 6884 136C6892 136 6903 136 6914 137L6873 99C6857 84 6846 66 6846 52C6846 42 6853 31 6867 19C6798 -4 6670 -48 6670 -159C6670 -230 6740 -276 6849 -276C6978 -276 7091 -204 7091 -121C7091 -85 7070 -49 7027 -14L6967 35C6933 62 6920 81 6920 100C6920 114 6935 128 6947 146C7045 170 7116 253 7116 342C7116 357 7113 376 7112 380C7129 378 7137 378 7146 378C7163 378 7173 379 7196 382L7205 427L7202 433C7174 426 7154 424 7100 424C7100 425 7076 482 6982 482ZM6883 1L6960 -58C7006 -94 7025 -121 7025 -154C7025 -206 6956 -248 6873 -248C6791 -248 6734 -206 6734 -145C6734 -43 6844 -11 6883 1ZM6957 448C7015 448 7044 412 7044 341C7044 238 6996 168 6926 168C6865 168 6833 209 6833 288C6833 383 6884 448 6957 448ZM7479 388L7486 368L7518 389C7555 412 7558 414 7565 414C7576 414 7583 404 7583 389C7583 338 7542 145 7501 2L7508 -9C7533 -2 7556 4 7578 8C7597 134 7618 199 7664 268C7718 352 7793 414 7838 414C7849 414 7855 405 7855 390C7855 372 7852 351 7844 319L7792 107C7783 70 7779 47 7779 31C7779 6 7790 -9 7809 -9C7835 -9 7871 12 7969 85L7959 103L7933 86C7904 67 7882 56 7872 56C7865 56 7859 65 7859 76C7859 81 7860 92 7861 96L7927 372C7934 401 7938 429 7938 446C7938 469 7927 482 7907 482C7865 482 7796 444 7737 389C7699 354 7671 320 7619 247L7657 408C7661 426 7663 438 7663 449C7663 470 7655 482 7640 482C7619 482 7580 460 7507 408ZM8502 473L8495 482L8427 465L8417 414C8402 336 8377 268 8346 221C8287 130 8209 59 8169 59C8161 59 8156 68 8156 85C8156 99 8158 112 8163 137L8220 408C8223 424 8225 438 8225 451C8225 470 8216 482 8202 482C8182 482 8144 461 8070 408L8042 388L8049 368L8081 389C8109 407 8120 412 8129 412C8138 412 8146 403 8146 392C8146 388 8145 378 8144 374L8081 77C8079 68 8077 44 8077 30C8077 7 8092 -11 8112 -11C8175 -11 8296 101 8380 239L8343 97C8336 73 8332 46 8332 31C8332 6 8343 -9 8362 -9C8388 -9 8424 12 8522 85L8512 103L8486 86C8462 70 8436 59 8425 59C8417 59 8412 66 8412 76C8412 112 8487 416 8502 473ZM9295 103L9269 86C9240 67 9218 56 9208 56C9201 56 9195 65 9195 76C9195 86 9197 95 9202 116L9277 413C9281 430 9284 446 9284 454C9284 471 9274 482 9258 482C9229 482 9191 464 9130 421C9067 376 9032 341 8983 272L9013 409C9017 429 9020 444 9020 451C9020 470 9010 482 8994 482C8964 482 8918 460 8863 418C8819 384 8799 363 8734 275L8767 408C8771 424 8773 439 8773 451C8773 470 8764 482 8750 482C8729 482 8691 461 8617 408L8589 388L8596 368C8633 391 8668 414 8675 414C8686 414 8693 404 8693 389C8693 338 8652 145 8611 2L8614 -9L8682 6L8704 108C8728 219 8755 278 8810 338C8852 384 8897 414 8925 414C8932 414 8936 406 8936 393C8936 358 8914 244 8873 69L8857 2L8862 -9L8931 6L8952 113C8968 194 9002 269 9046 318C9101 379 9151 414 9183 414C9191 414 9196 405 9196 389C9196 365 9193 351 9171 264C9131 105 9115 84 9115 31C9115 6 9126 -9 9145 -9C9171 -9 9207 12 9305 85ZM9577 722L9565 733C9513 707 9477 698 9405 691L9401 670L9449 670C9473 670 9483 663 9483 646C9483 639 9482 628 9481 622L9380 71C9379 68 9379 64 9379 61C9379 22 9427 -11 9482 -11C9519 -11 9570 8 9613 39C9709 107 9775 244 9775 376C9775 414 9766 453 9754 468C9747 477 9734 482 9719 482C9695 482 9665 474 9637 460C9586 433 9553 403 9491 324ZM9664 424C9690 424 9703 401 9703 352C9703 288 9682 202 9652 137C9619 68 9579 36 9525 36C9479 36 9454 59 9454 101C9454 135 9469 276 9550 361C9583 395 9635 424 9664 424ZM10132 111L10108 94C10055 56 10007 36 9971 36C9924 36 9895 73 9895 133C9895 158 9898 185 9903 214C9920 218 10029 248 10054 259C10139 296 10178 342 10178 404C10178 451 10144 482 10094 482C10026 496 9916 423 9879 349C9849 299 9819 180 9819 113C9819 35 9863 -11 9935 -11C9992 -11 10048 17 10140 92ZM9917 274C9934 343 9954 386 9983 412C10001 428 10032 440 10056 440C10085 440 10104 420 10104 388C10104 344 10069 297 10017 272C9989 258 9953 247 9908 237ZM10560 365C10563 403 10568 435 10576 476C10565 481 10561 482 10556 482C10525 482 10494 458 10458 407C10419 351 10380 291 10364 256L10396 408C10400 425 10402 438 10402 450C10402 470 10394 482 10379 482C10358 482 10320 461 10246 408L10218 388L10225 368L10257 389C10285 407 10296 412 10305 412C10315 412 10322 403 10322 390C10322 332 10279 126 10239 -2L10249 -9C10264 -4 10280 -1 10303 4L10316 6L10342 126C10360 209 10383 262 10427 319C10461 363 10488 384 10510 384C10525 384 10535 379 10546 365Z" stroke="rgb(0,0,0)" stroke-opacity="1" stroke-width="8" fill="rgb(0,0,0)" fill-opacity="1"></path></g></g><g><g transform="matrix(1,0,0,1,265.8125,25.679981689453125)"><path transform="matrix(0.024480000000000002,0,0,-0.024480000000000002,0,0)" d="M123 111C93 111 66 83 66 53C66 23 93 -5 122 -5C154 -5 182 22 182 53C182 83 154 111 123 111ZM123 456C93 456 66 428 66 398C66 368 93 340 122 340C154 340 182 367 182 397C182 428 154 456 123 456Z" stroke="rgb(0,0,0)" stroke-opacity="1" stroke-width="8" fill="rgb(0,0,0)" fill-opacity="1"></path></g></g></g><g><g><g transform="matrix(1,0,0,1,46.050048828125,55.042500000000004)"><path transform="matrix(0.024480000000000002,0,0,-0.024480000000000002,0,0)" d="M16 23L16 -3C203 -3 203 0 239 0C275 0 275 -3 468 -3L468 82C353 77 307 81 122 77L304 270C401 373 431 428 431 503C431 618 353 689 226 689C154 689 105 669 56 619L39 483L68 483L81 529C97 587 133 612 200 612C286 612 341 558 341 473C341 398 299 324 186 204ZM667 345C626 326 609 315 587 294C549 256 529 211 529 159C529 56 612 -20 725 -20C855 -20 963 82 963 206C963 286 926 329 812 381C903 443 935 485 935 545C935 631 864 689 758 689C639 689 552 613 552 508C552 440 579 402 667 345ZM783 295C846 267 884 218 884 164C884 80 821 14 740 14C655 14 600 74 600 167C600 240 629 286 703 331ZM722 423C659 454 627 494 627 544C627 610 675 655 746 655C819 655 867 607 867 534C867 477 842 438 777 396Z" stroke="rgb(0,0,0)" stroke-opacity="1" stroke-width="8" fill="rgb(0,0,0)" fill-opacity="1"></path></g></g><g><g transform="matrix(1,0,0,1,70.47503662109375,55.042500000000004)"><path transform="matrix(0.024480000000000002,0,0,-0.024480000000000002,0,0)" d="M204 123C177 114 159 108 106 93C99 17 74 -48 16 -144L30 -155L71 -136C152 -31 190 32 218 109Z" stroke="rgb(0,0,0)" stroke-opacity="1" stroke-width="8" fill="rgb(0,0,0)" fill-opacity="1"></path></g></g><g><g transform="matrix(1,0,0,1,81.4625244140625,55.042500000000004)"><path transform="matrix(0.024480000000000002,0,0,-0.024480000000000002,0,0)" d="M265 23L265 -3C452 -3 452 0 488 0C524 0 524 -3 717 -3L717 82C602 77 556 81 371 77L553 270C650 373 680 428 680 503C680 618 602 689 475 689C403 689 354 669 305 619L288 483L317 483L330 529C346 587 382 612 449 612C535 612 590 558 590 473C590 398 548 324 435 204ZM844 -20C955 16 1003 39 1057 85C1154 168 1205 283 1205 417C1205 586 1124 689 992 689C864 689 768 589 768 455C768 340 843 256 947 256C981 256 1020 267 1038 282L1108 340C1100 172 991 49 810 5L810 -3ZM988 656C1033 656 1066 637 1088 597C1106 565 1118 516 1118 471C1118 379 1065 317 988 317C908 317 854 388 854 492C854 593 906 656 988 656Z" stroke="rgb(0,0,0)" stroke-opacity="1" stroke-width="8" fill="rgb(0,0,0)" fill-opacity="1"></path></g></g><g><g transform="matrix(1,0,0,1,111.987548828125,55.042500000000004)"><path transform="matrix(0.024480000000000002,0,0,-0.024480000000000002,0,0)" d="M204 123C177 114 159 108 106 93C99 17 74 -48 16 -144L30 -155L71 -136C152 -31 190 32 218 109Z" stroke="rgb(0,0,0)" stroke-opacity="1" stroke-width="8" fill="rgb(0,0,0)" fill-opacity="1"></path></g></g><g><g transform="matrix(1,0,0,1,122.97503662109375,55.042500000000004)"><path transform="matrix(0.024480000000000002,0,0,-0.024480000000000002,0,0)" d="" stroke="rgb(0,0,0)" stroke-opacity="1" stroke-width="8" fill="rgb(0,0,0)" fill-opacity="1"></path></g></g><g><g transform="matrix(1,0,0,1,129.07501220703125,55.042500000000004)"><path transform="matrix(0.024480000000000002,0,0,-0.024480000000000002,0,0)" d="M735 38L108 38L108 665L735 665ZM773 0L773 703L70 703L70 0Z" stroke="rgb(0,0,0)" stroke-opacity="1" stroke-width="8" fill="rgb(0,0,0)" fill-opacity="1"></path></g></g><g><g transform="matrix(1,0,0,1,149.7125244140625,55.042500000000004)"><path transform="matrix(0.024480000000000002,0,0,-0.024480000000000002,0,0)" d="M204 123C177 114 159 108 106 93C99 17 74 -48 16 -144L30 -155L71 -136C152 -31 190 32 218 109Z" stroke="rgb(0,0,0)" stroke-opacity="1" stroke-width="8" fill="rgb(0,0,0)" fill-opacity="1"></path></g></g><g><g transform="matrix(1,0,0,1,160.70001220703125,55.042500000000004)"><path transform="matrix(0.024480000000000002,0,0,-0.024480000000000002,0,0)" d="M711 224C711 345 604 366 557 374C637 436 667 482 667 541C667 630 593 689 482 689C414 689 369 670 321 622L292 498L323 498L341 554C352 588 415 622 467 622C532 622 585 569 585 506C585 431 526 368 455 368C447 368 436 369 423 370L408 371L396 318L403 312C441 329 460 334 487 334C570 334 618 281 618 190C618 88 557 21 464 21C418 21 377 36 347 64C323 86 310 109 291 163L264 153C285 92 293 56 299 6C352 -12 396 -20 433 -20C556 -20 711 87 711 224ZM1166 -3L1166 27L1114 30C1059 33 1049 44 1049 96L1049 700L808 598L815 548L965 614L965 96C965 44 954 33 900 30L844 27L844 -3C998 0 998 0 1009 0C1040 0 1150 -3 1166 -3Z" stroke="rgb(0,0,0)" stroke-opacity="1" stroke-width="8" fill="rgb(0,0,0)" fill-opacity="1"></path></g></g><g><g transform="matrix(1,0,0,1,191.22503662109375,55.042500000000004)"><path transform="matrix(0.024480000000000002,0,0,-0.024480000000000002,0,0)" d="M204 123C177 114 159 108 106 93C99 17 74 -48 16 -144L30 -155L71 -136C152 -31 190 32 218 109Z" stroke="rgb(0,0,0)" stroke-opacity="1" stroke-width="8" fill="rgb(0,0,0)" fill-opacity="1"></path></g></g><g><g transform="matrix(1,0,0,1,202.2125244140625,55.042500000000004)"><path transform="matrix(0.024480000000000002,0,0,-0.024480000000000002,0,0)" d="M711 224C711 345 604 366 557 374C637 436 667 482 667 541C667 630 593 689 482 689C414 689 369 670 321 622L292 498L323 498L341 554C352 588 415 622 467 622C532 622 585 569 585 506C585 431 526 368 455 368C447 368 436 369 423 370L408 371L396 318L403 312C441 329 460 334 487 334C570 334 618 281 618 190C618 88 557 21 464 21C418 21 377 36 347 64C323 86 310 109 291 163L264 153C285 92 293 56 299 6C352 -12 396 -20 433 -20C556 -20 711 87 711 224ZM764 23L764 -3C951 -3 951 0 987 0C1023 0 1023 -3 1216 -3L1216 82C1101 77 1055 81 870 77L1052 270C1149 373 1179 428 1179 503C1179 618 1101 689 974 689C902 689 853 669 804 619L787 483L816 483L829 529C845 587 881 612 948 612C1034 612 1089 558 1089 473C1089 398 1047 324 934 204Z" stroke="rgb(0,0,0)" stroke-opacity="1" stroke-width="8" fill="rgb(0,0,0)" fill-opacity="1"></path></g></g></g></g></svg>